<?xml version="1.0" encoding="UTF-8" standalone="no"?>
<!DOCTYPE svg PUBLIC "-//W3C//DTD SVG 1.1//EN" "http://www.w3.org/Graphics/SVG/1.1/DTD/svg11.dtd">
<svg width="100%" height="100%" viewBox="0 0 236 120" version="1.1" xmlns="http://www.w3.org/2000/svg" xmlns:xlink="http://www.w3.org/1999/xlink" xml:space="preserve" xmlns:serif="http://www.serif.com/" style="fill-rule:evenodd;clip-rule:evenodd;stroke-linejoin:round;stroke-miterlimit:2;">
    <g transform="matrix(1,0,0,1,-522.28,-300)">
        <g transform="matrix(1,0,0,1,373.28,199)">
            <path d="M149,101L269,101L269,221L149,221L149,193L160,193L160,210L258,210L258,112L160,112L160,127L149,138L149,101Z" style="fill:white;"/>
        </g>
        <g transform="matrix(1,0,0,1,373.28,199)">
            <path d="M149,147L160,147L160,136L149,147Z" style="fill:white;"/>
        </g>
        <g transform="matrix(1,0,0,1,373.28,199)">
            <rect x="149" y="154" width="11" height="32" style="fill:white;"/>
        </g>
        <g transform="matrix(1,0,0,1,373.28,199)">
            <path d="M166,136L194,136C194,136 194.001,136 194.002,136.001C203.926,140.353 210.335,150.164 210.335,161C210.335,171.836 203.926,181.647 194.002,185.999C194.001,186 194,186 194,186L166,186L166,154L177,154L177,175L194,175C194,175 194,175 194.001,174.999C197.714,171.286 199.799,166.251 199.799,161C199.799,155.749 197.714,150.714 194.001,147.001C194,147 194,147 194,147L166,147L166,136Z" style="fill:white;"/>
        </g>
        <g transform="matrix(1,0,0,1,373.28,199)">
            <path d="M251,136L229,136C229,136 228.999,136 228.998,136C222.242,136.292 216.679,141.41 215.826,148.119C214.974,154.828 219.08,161.175 225.548,163.147C227.745,163.817 233.671,165.94 239.264,168.022C240.897,168.631 241.861,170.321 241.552,172.037C241.243,173.752 239.75,175 238.007,175L215,175L204,186L238.009,186C244.19,186 249.517,181.647 250.747,175.589C251.978,169.532 248.772,163.446 243.08,161.034C243.027,161.012 228.511,155.772 227.711,155.398C225.929,154.567 224.91,152.66 225.207,150.717C225.505,148.774 227.049,147.26 228.997,147C228.999,147 229,147 229,147L251,147L251,136Z" style="fill:white;"/>
        </g>
        <g transform="matrix(19,0,0,19,647.311,348.566)">
            <rect x="0.069" y="-0.714" width="0.157" height="0.714" style="fill:white;fill-rule:nonzero;"/>
        </g>
        <g transform="matrix(19,0,0,19,652.916,348.566)">
            <path d="M0.226,-0.132L0.226,-0.582L0.338,-0.582C0.377,-0.582 0.409,-0.576 0.436,-0.566C0.462,-0.555 0.483,-0.539 0.499,-0.518C0.515,-0.497 0.527,-0.472 0.534,-0.444C0.541,-0.415 0.544,-0.382 0.544,-0.346C0.544,-0.307 0.539,-0.273 0.529,-0.246C0.519,-0.219 0.506,-0.197 0.489,-0.18C0.472,-0.163 0.453,-0.15 0.432,-0.143C0.411,-0.136 0.389,-0.132 0.366,-0.132L0.226,-0.132ZM0.069,-0.714L0.069,0L0.377,0C0.432,0 0.479,-0.009 0.52,-0.028C0.56,-0.046 0.594,-0.071 0.621,-0.103C0.648,-0.135 0.668,-0.173 0.681,-0.217C0.694,-0.261 0.701,-0.309 0.701,-0.361C0.701,-0.42 0.693,-0.472 0.677,-0.516C0.66,-0.56 0.638,-0.597 0.609,-0.626C0.58,-0.655 0.545,-0.677 0.506,-0.692C0.466,-0.707 0.423,-0.714 0.377,-0.714L0.069,-0.714Z" style="fill:white;fill-rule:nonzero;"/>
        </g>
        <g transform="matrix(19,0,0,19,666.995,348.566)">
            <path d="M0.069,-0.714L0.069,0L0.611,0L0.611,-0.132L0.226,-0.132L0.226,-0.307L0.572,-0.307L0.572,-0.429L0.226,-0.429L0.226,-0.582L0.603,-0.582L0.603,-0.714L0.069,-0.714Z" style="fill:white;fill-rule:nonzero;"/>
        </g>
        <g transform="matrix(19,0,0,19,679.307,348.566)">
            <path d="M0.249,-0.276L0.342,-0.538L0.344,-0.538L0.434,-0.276L0.249,-0.276ZM0.264,-0.714L-0.006,0L0.152,0L0.208,-0.159L0.475,-0.159L0.529,0L0.692,0L0.425,-0.714L0.264,-0.714Z" style="fill:white;fill-rule:nonzero;"/>
        </g>
        <g transform="matrix(19,0,0,19,692.322,348.566)">
            <path d="M0.069,-0.714L0.069,0L0.574,0L0.574,-0.132L0.226,-0.132L0.226,-0.714L0.069,-0.714Z" style="fill:white;fill-rule:nonzero;"/>
        </g>
        <g transform="matrix(19,0,0,19,647.311,366.117)">
            <path d="M0.226,-0.132L0.226,-0.582L0.338,-0.582C0.377,-0.582 0.409,-0.576 0.436,-0.566C0.462,-0.555 0.483,-0.539 0.499,-0.518C0.515,-0.497 0.527,-0.472 0.534,-0.444C0.541,-0.415 0.544,-0.382 0.544,-0.346C0.544,-0.307 0.539,-0.273 0.529,-0.246C0.519,-0.219 0.506,-0.197 0.489,-0.18C0.472,-0.163 0.453,-0.15 0.432,-0.143C0.411,-0.136 0.389,-0.132 0.366,-0.132L0.226,-0.132ZM0.069,-0.714L0.069,0L0.377,0C0.432,0 0.479,-0.009 0.52,-0.028C0.56,-0.046 0.594,-0.071 0.621,-0.103C0.648,-0.135 0.668,-0.173 0.681,-0.217C0.694,-0.261 0.701,-0.309 0.701,-0.361C0.701,-0.42 0.693,-0.472 0.677,-0.516C0.66,-0.56 0.638,-0.597 0.609,-0.626C0.58,-0.655 0.545,-0.677 0.506,-0.692C0.466,-0.707 0.423,-0.714 0.377,-0.714L0.069,-0.714Z" style="fill:white;fill-rule:nonzero;"/>
        </g>
        <g transform="matrix(19,0,0,19,661.39,366.117)">
            <path d="M0.069,-0.714L0.069,0L0.611,0L0.611,-0.132L0.226,-0.132L0.226,-0.307L0.572,-0.307L0.572,-0.429L0.226,-0.429L0.226,-0.582L0.603,-0.582L0.603,-0.714L0.069,-0.714Z" style="fill:white;fill-rule:nonzero;"/>
        </g>
        <g transform="matrix(19,0,0,19,673.702,366.117)">
            <path d="M0.176,-0.237L0.024,-0.237C0.023,-0.193 0.031,-0.155 0.048,-0.123C0.065,-0.091 0.087,-0.065 0.116,-0.044C0.144,-0.023 0.177,-0.008 0.214,0.002C0.251,0.011 0.289,0.016 0.328,0.016C0.377,0.016 0.42,0.01 0.457,-0.001C0.494,-0.012 0.525,-0.028 0.55,-0.049C0.575,-0.069 0.593,-0.093 0.606,-0.121C0.619,-0.149 0.625,-0.179 0.625,-0.212C0.625,-0.252 0.616,-0.285 0.6,-0.311C0.583,-0.336 0.562,-0.357 0.539,-0.372C0.516,-0.387 0.492,-0.399 0.469,-0.406C0.445,-0.413 0.426,-0.417 0.413,-0.42C0.368,-0.431 0.332,-0.441 0.305,-0.448C0.277,-0.455 0.255,-0.463 0.24,-0.47C0.224,-0.477 0.213,-0.485 0.208,-0.494C0.203,-0.503 0.2,-0.514 0.2,-0.528C0.2,-0.543 0.203,-0.556 0.21,-0.566C0.217,-0.576 0.225,-0.584 0.236,-0.591C0.246,-0.598 0.257,-0.602 0.27,-0.605C0.283,-0.608 0.295,-0.609 0.308,-0.609C0.327,-0.609 0.345,-0.607 0.362,-0.604C0.378,-0.601 0.392,-0.595 0.405,-0.587C0.418,-0.579 0.428,-0.568 0.436,-0.554C0.443,-0.54 0.448,-0.522 0.449,-0.501L0.601,-0.501C0.601,-0.542 0.593,-0.578 0.578,-0.607C0.562,-0.636 0.541,-0.659 0.514,-0.678C0.487,-0.697 0.457,-0.71 0.423,-0.719C0.388,-0.727 0.352,-0.731 0.315,-0.731C0.283,-0.731 0.251,-0.727 0.219,-0.718C0.187,-0.709 0.158,-0.696 0.133,-0.678C0.108,-0.66 0.087,-0.638 0.072,-0.611C0.056,-0.584 0.048,-0.552 0.048,-0.515C0.048,-0.482 0.054,-0.455 0.067,-0.432C0.079,-0.409 0.095,-0.389 0.115,-0.374C0.135,-0.359 0.158,-0.346 0.183,-0.337C0.208,-0.327 0.234,-0.319 0.261,-0.312C0.287,-0.305 0.313,-0.298 0.338,-0.292C0.363,-0.286 0.386,-0.279 0.406,-0.271C0.426,-0.263 0.442,-0.253 0.455,-0.241C0.467,-0.229 0.473,-0.213 0.473,-0.194C0.473,-0.176 0.468,-0.161 0.459,-0.15C0.45,-0.138 0.438,-0.129 0.424,-0.122C0.41,-0.115 0.395,-0.111 0.379,-0.109C0.363,-0.106 0.348,-0.105 0.334,-0.105C0.313,-0.105 0.293,-0.108 0.274,-0.113C0.255,-0.117 0.238,-0.125 0.224,-0.136C0.209,-0.146 0.198,-0.159 0.189,-0.176C0.18,-0.193 0.176,-0.213 0.176,-0.237Z" style="fill:white;fill-rule:nonzero;"/>
        </g>
        <g transform="matrix(19,0,0,19,686.033,366.117)">
            <rect x="0.069" y="-0.714" width="0.157" height="0.714" style="fill:white;fill-rule:nonzero;"/>
        </g>
        <g transform="matrix(19,0,0,19,691.638,366.117)">
            <path d="M0.585,-0.081L0.601,0L0.701,0L0.701,-0.386L0.401,-0.386L0.401,-0.269L0.559,-0.269C0.554,-0.219 0.538,-0.181 0.51,-0.155C0.481,-0.128 0.441,-0.115 0.389,-0.115C0.354,-0.115 0.324,-0.122 0.299,-0.136C0.274,-0.149 0.254,-0.167 0.239,-0.19C0.224,-0.213 0.213,-0.238 0.206,-0.267C0.199,-0.295 0.195,-0.324 0.195,-0.354C0.195,-0.385 0.199,-0.416 0.206,-0.445C0.213,-0.474 0.224,-0.501 0.239,-0.524C0.254,-0.547 0.274,-0.565 0.299,-0.579C0.324,-0.592 0.354,-0.599 0.389,-0.599C0.427,-0.599 0.459,-0.589 0.486,-0.569C0.513,-0.549 0.531,-0.519 0.54,-0.479L0.69,-0.479C0.686,-0.52 0.675,-0.556 0.657,-0.587C0.639,-0.618 0.616,-0.645 0.589,-0.666C0.561,-0.687 0.53,-0.704 0.496,-0.715C0.461,-0.725 0.426,-0.731 0.389,-0.731C0.334,-0.731 0.285,-0.721 0.242,-0.702C0.198,-0.683 0.161,-0.656 0.131,-0.622C0.101,-0.588 0.078,-0.548 0.062,-0.503C0.046,-0.457 0.038,-0.407 0.038,-0.354C0.038,-0.302 0.046,-0.254 0.062,-0.209C0.078,-0.164 0.101,-0.124 0.131,-0.091C0.161,-0.058 0.198,-0.032 0.242,-0.013C0.285,0.007 0.334,0.016 0.389,0.016C0.424,0.016 0.458,0.009 0.492,-0.006C0.526,-0.02 0.557,-0.045 0.585,-0.081Z" style="fill:white;fill-rule:nonzero;"/>
        </g>
        <g transform="matrix(19,0,0,19,706.059,366.117)">
            <path d="M0.069,-0.714L0.069,0L0.216,0L0.216,-0.478L0.218,-0.478L0.515,0L0.672,0L0.672,-0.714L0.525,-0.714L0.525,-0.235L0.523,-0.235L0.225,-0.714L0.069,-0.714Z" style="fill:white;fill-rule:nonzero;"/>
        </g>
        <g transform="matrix(19,0,0,19,647.311,383.668)">
            <path d="M0.176,-0.237L0.024,-0.237C0.023,-0.193 0.031,-0.155 0.048,-0.123C0.065,-0.091 0.087,-0.065 0.116,-0.044C0.144,-0.023 0.177,-0.008 0.214,0.002C0.251,0.011 0.289,0.016 0.328,0.016C0.377,0.016 0.42,0.01 0.457,-0.001C0.494,-0.012 0.525,-0.028 0.55,-0.049C0.575,-0.069 0.593,-0.093 0.606,-0.121C0.619,-0.149 0.625,-0.179 0.625,-0.212C0.625,-0.252 0.616,-0.285 0.6,-0.311C0.583,-0.336 0.562,-0.357 0.539,-0.372C0.516,-0.387 0.492,-0.399 0.469,-0.406C0.445,-0.413 0.426,-0.417 0.413,-0.42C0.368,-0.431 0.332,-0.441 0.305,-0.448C0.277,-0.455 0.255,-0.463 0.24,-0.47C0.224,-0.477 0.213,-0.485 0.208,-0.494C0.203,-0.503 0.2,-0.514 0.2,-0.528C0.2,-0.543 0.203,-0.556 0.21,-0.566C0.217,-0.576 0.225,-0.584 0.236,-0.591C0.246,-0.598 0.257,-0.602 0.27,-0.605C0.283,-0.608 0.295,-0.609 0.308,-0.609C0.327,-0.609 0.345,-0.607 0.362,-0.604C0.378,-0.601 0.392,-0.595 0.405,-0.587C0.418,-0.579 0.428,-0.568 0.436,-0.554C0.443,-0.54 0.448,-0.522 0.449,-0.501L0.601,-0.501C0.601,-0.542 0.593,-0.578 0.578,-0.607C0.562,-0.636 0.541,-0.659 0.514,-0.678C0.487,-0.697 0.457,-0.71 0.423,-0.719C0.388,-0.727 0.352,-0.731 0.315,-0.731C0.283,-0.731 0.251,-0.727 0.219,-0.718C0.187,-0.709 0.158,-0.696 0.133,-0.678C0.108,-0.66 0.087,-0.638 0.072,-0.611C0.056,-0.584 0.048,-0.552 0.048,-0.515C0.048,-0.482 0.054,-0.455 0.067,-0.432C0.079,-0.409 0.095,-0.389 0.115,-0.374C0.135,-0.359 0.158,-0.346 0.183,-0.337C0.208,-0.327 0.234,-0.319 0.261,-0.312C0.287,-0.305 0.313,-0.298 0.338,-0.292C0.363,-0.286 0.386,-0.279 0.406,-0.271C0.426,-0.263 0.442,-0.253 0.455,-0.241C0.467,-0.229 0.473,-0.213 0.473,-0.194C0.473,-0.176 0.468,-0.161 0.459,-0.15C0.45,-0.138 0.438,-0.129 0.424,-0.122C0.41,-0.115 0.395,-0.111 0.379,-0.109C0.363,-0.106 0.348,-0.105 0.334,-0.105C0.313,-0.105 0.293,-0.108 0.274,-0.113C0.255,-0.117 0.238,-0.125 0.224,-0.136C0.209,-0.146 0.198,-0.159 0.189,-0.176C0.18,-0.193 0.176,-0.213 0.176,-0.237Z" style="fill:white;fill-rule:nonzero;"/>
        </g>
        <g transform="matrix(19,0,0,19,659.642,383.668)">
            <path d="M0.195,-0.354C0.195,-0.385 0.199,-0.416 0.206,-0.445C0.213,-0.474 0.224,-0.501 0.239,-0.524C0.254,-0.547 0.274,-0.565 0.299,-0.579C0.324,-0.592 0.354,-0.599 0.389,-0.599C0.424,-0.599 0.454,-0.592 0.479,-0.579C0.504,-0.565 0.524,-0.547 0.539,-0.524C0.554,-0.501 0.566,-0.474 0.573,-0.445C0.58,-0.416 0.583,-0.385 0.583,-0.354C0.583,-0.324 0.58,-0.295 0.573,-0.267C0.566,-0.238 0.554,-0.213 0.539,-0.19C0.524,-0.167 0.504,-0.149 0.479,-0.136C0.454,-0.122 0.424,-0.115 0.389,-0.115C0.354,-0.115 0.324,-0.122 0.299,-0.136C0.274,-0.149 0.254,-0.167 0.239,-0.19C0.224,-0.213 0.213,-0.238 0.206,-0.267C0.199,-0.295 0.195,-0.324 0.195,-0.354ZM0.038,-0.354C0.038,-0.302 0.046,-0.254 0.062,-0.209C0.078,-0.164 0.101,-0.124 0.131,-0.091C0.161,-0.058 0.198,-0.032 0.242,-0.013C0.285,0.007 0.334,0.016 0.389,0.016C0.444,0.016 0.494,0.007 0.537,-0.013C0.58,-0.032 0.617,-0.058 0.647,-0.091C0.677,-0.124 0.7,-0.164 0.716,-0.209C0.732,-0.254 0.74,-0.302 0.74,-0.354C0.74,-0.407 0.732,-0.457 0.716,-0.503C0.7,-0.548 0.677,-0.588 0.647,-0.622C0.617,-0.656 0.58,-0.683 0.537,-0.702C0.494,-0.721 0.444,-0.731 0.389,-0.731C0.334,-0.731 0.285,-0.721 0.242,-0.702C0.198,-0.683 0.161,-0.656 0.131,-0.622C0.101,-0.588 0.078,-0.548 0.062,-0.503C0.046,-0.457 0.038,-0.407 0.038,-0.354Z" style="fill:white;fill-rule:nonzero;"/>
        </g>
        <g transform="matrix(19,0,0,19,674.424,383.668)">
            <path d="M0.069,-0.714L0.069,0L0.574,0L0.574,-0.132L0.226,-0.132L0.226,-0.714L0.069,-0.714Z" style="fill:white;fill-rule:nonzero;"/>
        </g>
        <g transform="matrix(19,0,0,19,685.691,383.668)">
            <path d="M0.675,-0.27L0.675,-0.714L0.518,-0.714L0.518,-0.27C0.518,-0.217 0.507,-0.178 0.486,-0.153C0.465,-0.128 0.426,-0.115 0.37,-0.115C0.338,-0.115 0.313,-0.12 0.294,-0.129C0.275,-0.138 0.26,-0.149 0.249,-0.164C0.238,-0.178 0.231,-0.194 0.228,-0.213C0.225,-0.232 0.223,-0.251 0.223,-0.27L0.223,-0.714L0.066,-0.714L0.066,-0.27C0.066,-0.173 0.092,-0.101 0.146,-0.054C0.199,-0.007 0.273,0.016 0.37,0.016C0.465,0.016 0.54,-0.008 0.594,-0.055C0.648,-0.101 0.675,-0.173 0.675,-0.27Z" style="fill:white;fill-rule:nonzero;"/>
        </g>
        <g transform="matrix(19,0,0,19,699.77,383.668)">
            <path d="M0.227,-0.582L0.227,0L0.384,0L0.384,-0.582L0.598,-0.582L0.598,-0.714L0.013,-0.714L0.013,-0.582L0.227,-0.582Z" style="fill:white;fill-rule:nonzero;"/>
        </g>
        <g transform="matrix(19,0,0,19,711.379,383.668)">
            <rect x="0.069" y="-0.714" width="0.157" height="0.714" style="fill:white;fill-rule:nonzero;"/>
        </g>
        <g transform="matrix(19,0,0,19,716.984,383.668)">
            <path d="M0.195,-0.354C0.195,-0.385 0.199,-0.416 0.206,-0.445C0.213,-0.474 0.224,-0.501 0.239,-0.524C0.254,-0.547 0.274,-0.565 0.299,-0.579C0.324,-0.592 0.354,-0.599 0.389,-0.599C0.424,-0.599 0.454,-0.592 0.479,-0.579C0.504,-0.565 0.524,-0.547 0.539,-0.524C0.554,-0.501 0.566,-0.474 0.573,-0.445C0.58,-0.416 0.583,-0.385 0.583,-0.354C0.583,-0.324 0.58,-0.295 0.573,-0.267C0.566,-0.238 0.554,-0.213 0.539,-0.19C0.524,-0.167 0.504,-0.149 0.479,-0.136C0.454,-0.122 0.424,-0.115 0.389,-0.115C0.354,-0.115 0.324,-0.122 0.299,-0.136C0.274,-0.149 0.254,-0.167 0.239,-0.19C0.224,-0.213 0.213,-0.238 0.206,-0.267C0.199,-0.295 0.195,-0.324 0.195,-0.354ZM0.038,-0.354C0.038,-0.302 0.046,-0.254 0.062,-0.209C0.078,-0.164 0.101,-0.124 0.131,-0.091C0.161,-0.058 0.198,-0.032 0.242,-0.013C0.285,0.007 0.334,0.016 0.389,0.016C0.444,0.016 0.494,0.007 0.537,-0.013C0.58,-0.032 0.617,-0.058 0.647,-0.091C0.677,-0.124 0.7,-0.164 0.716,-0.209C0.732,-0.254 0.74,-0.302 0.74,-0.354C0.74,-0.407 0.732,-0.457 0.716,-0.503C0.7,-0.548 0.677,-0.588 0.647,-0.622C0.617,-0.656 0.58,-0.683 0.537,-0.702C0.494,-0.721 0.444,-0.731 0.389,-0.731C0.334,-0.731 0.285,-0.721 0.242,-0.702C0.198,-0.683 0.161,-0.656 0.131,-0.622C0.101,-0.588 0.078,-0.548 0.062,-0.503C0.046,-0.457 0.038,-0.407 0.038,-0.354Z" style="fill:white;fill-rule:nonzero;"/>
        </g>
        <g transform="matrix(19,0,0,19,731.766,383.668)">
            <path d="M0.069,-0.714L0.069,0L0.216,0L0.216,-0.478L0.218,-0.478L0.515,0L0.672,0L0.672,-0.714L0.525,-0.714L0.525,-0.235L0.523,-0.235L0.225,-0.714L0.069,-0.714Z" style="fill:white;fill-rule:nonzero;"/>
        </g>
        <g transform="matrix(19,0,0,19,745.845,383.668)">
            <path d="M0.176,-0.237L0.024,-0.237C0.023,-0.193 0.031,-0.155 0.048,-0.123C0.065,-0.091 0.087,-0.065 0.116,-0.044C0.144,-0.023 0.177,-0.008 0.214,0.002C0.251,0.011 0.289,0.016 0.328,0.016C0.377,0.016 0.42,0.01 0.457,-0.001C0.494,-0.012 0.525,-0.028 0.55,-0.049C0.575,-0.069 0.593,-0.093 0.606,-0.121C0.619,-0.149 0.625,-0.179 0.625,-0.212C0.625,-0.252 0.616,-0.285 0.6,-0.311C0.583,-0.336 0.562,-0.357 0.539,-0.372C0.516,-0.387 0.492,-0.399 0.469,-0.406C0.445,-0.413 0.426,-0.417 0.413,-0.42C0.368,-0.431 0.332,-0.441 0.305,-0.448C0.277,-0.455 0.255,-0.463 0.24,-0.47C0.224,-0.477 0.213,-0.485 0.208,-0.494C0.203,-0.503 0.2,-0.514 0.2,-0.528C0.2,-0.543 0.203,-0.556 0.21,-0.566C0.217,-0.576 0.225,-0.584 0.236,-0.591C0.246,-0.598 0.257,-0.602 0.27,-0.605C0.283,-0.608 0.295,-0.609 0.308,-0.609C0.327,-0.609 0.345,-0.607 0.362,-0.604C0.378,-0.601 0.392,-0.595 0.405,-0.587C0.418,-0.579 0.428,-0.568 0.436,-0.554C0.443,-0.54 0.448,-0.522 0.449,-0.501L0.601,-0.501C0.601,-0.542 0.593,-0.578 0.578,-0.607C0.562,-0.636 0.541,-0.659 0.514,-0.678C0.487,-0.697 0.457,-0.71 0.423,-0.719C0.388,-0.727 0.352,-0.731 0.315,-0.731C0.283,-0.731 0.251,-0.727 0.219,-0.718C0.187,-0.709 0.158,-0.696 0.133,-0.678C0.108,-0.66 0.087,-0.638 0.072,-0.611C0.056,-0.584 0.048,-0.552 0.048,-0.515C0.048,-0.482 0.054,-0.455 0.067,-0.432C0.079,-0.409 0.095,-0.389 0.115,-0.374C0.135,-0.359 0.158,-0.346 0.183,-0.337C0.208,-0.327 0.234,-0.319 0.261,-0.312C0.287,-0.305 0.313,-0.298 0.338,-0.292C0.363,-0.286 0.386,-0.279 0.406,-0.271C0.426,-0.263 0.442,-0.253 0.455,-0.241C0.467,-0.229 0.473,-0.213 0.473,-0.194C0.473,-0.176 0.468,-0.161 0.459,-0.15C0.45,-0.138 0.438,-0.129 0.424,-0.122C0.41,-0.115 0.395,-0.111 0.379,-0.109C0.363,-0.106 0.348,-0.105 0.334,-0.105C0.313,-0.105 0.293,-0.108 0.274,-0.113C0.255,-0.117 0.238,-0.125 0.224,-0.136C0.209,-0.146 0.198,-0.159 0.189,-0.176C0.18,-0.193 0.176,-0.213 0.176,-0.237Z" style="fill:white;fill-rule:nonzero;"/>
        </g>
    </g>
</svg>
