<?xml version="1.0" standalone="no"?>
<!DOCTYPE svg PUBLIC "-//W3C//DTD SVG 20010904//EN"
 "http://www.w3.org/TR/2001/REC-SVG-20010904/DTD/svg10.dtd">
<svg version="1.0" xmlns="http://www.w3.org/2000/svg"
 width="700.000000pt" height="700.000000pt" viewBox="0 0 700.000000 700.000000"
 preserveAspectRatio="xMidYMid meet">
<metadata>
Created by potrace 1.11, written by Peter Selinger 2001-2013
</metadata>
<g transform="translate(0.000000,700.000000) scale(0.100000,-0.100000)"
fill="#000000" stroke="none">
<path d="M0 5925 c0 -591 1 -1075 3 -1075 2 0 146 142 320 316 251 250 317
322 318 343 0 14 0 211 1 438 l0 411 2857 -1 2856 -2 1 -2856 2 -2856 -2857 1
-2856 1 -2 490 c-1 270 -2 492 -3 495 0 4 -579 5 -627 1 -10 -1 -13 -171 -13
-816 l0 -815 3500 0 3500 0 0 3500 0 3500 -3500 0 -3500 0 0 -1075z"/>
<path d="M990 4639 l0 -319 23 -1 c12 0 379 -1 816 -1 l794 -1 44 -46 c60 -63
146 -193 187 -282 38 -82 81 -219 91 -289 4 -25 9 -58 12 -75 6 -40 6 -252 -1
-263 -3 -4 -8 -31 -12 -58 -22 -167 -121 -386 -238 -529 -83 -102 -16 -91
-577 -91 l-494 1 -1 610 0 610 -322 3 -322 2 0 -933 0 -934 818 0 817 -1 76
37 c423 208 742 622 840 1090 27 127 33 193 33 336 0 253 -48 461 -158 690
-47 98 -129 231 -182 294 -44 53 -55 65 -98 111 -111 118 -291 251 -436 322
l-75 37 -817 0 -818 -1 0 -319z"/>
<path d="M4595 4952 c-16 -2 -61 -12 -100 -22 -500 -130 -751 -701 -509 -1157
44 -84 82 -133 158 -207 110 -107 175 -141 441 -231 94 -31 231 -79 305 -106
74 -28 173 -64 220 -81 162 -59 194 -73 227 -106 43 -41 63 -88 63 -147 0 -83
-40 -148 -115 -188 -40 -21 -47 -21 -738 -22 l-698 -1 -315 -315 c-173 -172
-314 -317 -314 -320 0 -3 460 -6 1022 -6 778 0 1038 3 1087 13 301 57 536 284
601 580 20 93 24 228 8 296 -5 24 -12 54 -14 68 -12 59 -77 189 -133 263 -50
66 -150 153 -226 197 -27 15 -102 47 -165 70 -63 23 -124 45 -135 50 -11 5
-33 13 -50 18 -30 10 -84 30 -390 142 -222 82 -225 83 -260 102 -140 76 -161
293 -38 408 72 69 55 67 776 66 l647 -1 0 322 0 322 -662 -2 c-365 0 -676 -3
-693 -5z"/>
<path d="M325 4640 c-170 -170 -311 -312 -312 -317 -3 -9 614 -9 623 0 7 7 9
616 2 622 -2 2 -143 -135 -313 -305z"/>
<path d="M0 2976 l0 -934 320 0 320 0 1 27 c0 30 0 1784 -1 1819 l0 22 -320 0
-320 0 0 -934z"/>
</g>
</svg>
